<svg width="52.965999999999994" height="52.965999999999994" xmlns="http://www.w3.org/2000/svg">

 <g>
  <title>background</title>
  <rect fill="none" id="canvas_background" height="402" width="582" y="-1" x="-1"/>
 </g>
 <g>
  <title>Layer 1</title>
  <path fill="#ffffff" id="svg_1" d="m51.704,51.273l-14.859,-15.453c3.79,-3.801 6.138,-9.041 6.138,-14.82c0,-11.58 -9.42,-21 -21,-21s-21,9.42 -21,21s9.42,21 21,21c5.083,0 9.748,-1.817 13.384,-4.832l14.895,15.491c0.196,0.205 0.458,0.307 0.721,0.307c0.25,0 0.499,-0.093 0.693,-0.279c0.398,-0.383 0.41,-1.016 0.028,-1.414zm-29.721,-11.273c-10.477,0 -19,-8.523 -19,-19s8.523,-19 19,-19s19,8.523 19,19s-8.524,19 -19,19z"/>
 </g>
</svg>