<svg width="612" height="612" xmlns="http://www.w3.org/2000/svg">

 <g>
  <title>background</title>
  <rect fill="none" id="canvas_background" height="402" width="582" y="-1" x="-1"/>
 </g>
 <g>
  <title>Layer 1</title>
  <g id="svg_1">
   <g id="svg_2">
    <path fill="#ffffff" stroke="#ffffff" id="svg_3" d="m16.051,180.818l579.898,0c8.874,0 16.051,-6.176 16.051,-13.909c0,-7.678 -7.288,-13.909 -16.051,-13.909l-579.898,0c-8.874,0 -16.051,6.176 -16.051,13.909c0,7.678 7.288,13.909 16.051,13.909z"/>
    <path fill="#ffffff" id="svg_4" d="m16.051,319.909l579.898,0c8.874,0 16.051,-6.176 16.051,-13.909c0,-7.678 -7.288,-13.909 -16.051,-13.909l-579.898,0c-8.874,0 -16.051,6.176 -16.051,13.909c0,7.678 7.288,13.909 16.051,13.909z"/>
    <path fill="#ffffff" id="svg_5" d="m16.051,459l579.898,0c8.874,0 16.051,-6.176 16.051,-13.909c0,-7.678 -7.288,-13.909 -16.051,-13.909l-579.898,0c-8.874,0 -16.051,6.175 -16.051,13.909c0,7.678 7.288,13.909 16.051,13.909z"/>
   </g>
  </g>
  <g id="svg_6"/>
  <g id="svg_7"/>
  <g id="svg_8"/>
  <g id="svg_9"/>
  <g id="svg_10"/>
  <g id="svg_11"/>
  <g id="svg_12"/>
  <g id="svg_13"/>
  <g id="svg_14"/>
  <g id="svg_15"/>
  <g id="svg_16"/>
  <g id="svg_17"/>
  <g id="svg_18"/>
  <g id="svg_19"/>
  <g id="svg_20"/>
 </g>
</svg>